{
  "accessors": [
    {
      "bufferView": 2,
      "componentType": 5126,
      "count": 3482,
      "max": [
        0.08436299860477448,
        0.02031099982559681,
        0.03570299968123436
      ],
      "min": [
        -0.08436500281095505,
        -0.043143000453710556,
        -0.13071300089359283
      ],
      "type": "VEC3"
    },
    {
      "bufferView": 2,
      "byteOffset": 41784,
      "componentType": 5126,
      "count": 3482,
      "max": [
        0.9999337196350098,
        0.997853696346283,
        0.9961633086204529
      ],
      "min": [
        -0.9999337196350098,
        -0.9987236857414246,
        -0.9983802437782288
      ],
      "type": "VEC3"
    },
    {
      "bufferView": 1,
      "componentType": 5126,
      "count": 3482,
      "max": [
        0.7492989897727966,
        0.9363399744033813
      ],
      "min": [
        0.5857629776000977,
        0.8776649832725525
      ],
      "type": "VEC2"
    },
    {
      "bufferView": 0,
      "componentType": 5125,
      "count": 9384,
      "type": "SCALAR"
    },
    {
      "bufferView": 2,
      "byteOffset": 83568,
      "componentType": 5126,
      "count": 128,
      "max": [
        0.07718700170516968,
        0.019607000052928925,
        0.03382100164890289
      ],
      "min": [
        -0.07718700170516968,
        -0.0412600003182888,
        0.020145999267697334
      ],
      "type": "VEC3"
    },
    {
      "bufferView": 2,
      "byteOffset": 85104,
      "componentType": 5126,
      "count": 128,
      "max": [
        0.0007706891046836972,
        0.21921385824680328,
        0.9756922721862793
      ],
      "min": [
        -0.0007706889882683754,
        -0.21921385824680328,
        -0.9756922125816345
      ],
      "type": "VEC3"
    },
    {
      "bufferView": 1,
      "byteOffset": 27856,
      "componentType": 5126,
      "count": 128,
      "max": [
        0.5847240090370178,
        0.9205769896507263
      ],
      "min": [
        0.51111900806427,
        0.8840330243110657
      ],
      "type": "VEC2"
    },
    {
      "bufferView": 0,
      "byteOffset": 37536,
      "componentType": 5125,
      "count": 360,
      "type": "SCALAR"
    }
  ],
  "asset": {
    "extras": {
      "author": "maximkuzlin (https://sketchfab.com/maximkuzlin)",
      "license": "CC-BY-4.0 (http://creativecommons.org/licenses/by/4.0/)",
      "source": "https://sketchfab.com/3d-models/heart-glasses-ef812c7e7dc14f6b8783ccb516b3495c",
      "title": "Heart Glasses"
    },
    "generator": "Sketchfab-12.68.0",
    "version": "2.0"
  },
  "bufferViews": [
    {
      "buffer": 0,
      "byteLength": 38976,
      "name": "floatBufferViews",
      "target": 34963
    },
    {
      "buffer": 0,
      "byteLength": 28880,
      "byteOffset": 38976,
      "byteStride": 8,
      "name": "floatBufferViews",
      "target": 34962
    },
    {
      "buffer": 0,
      "byteLength": 86640,
      "byteOffset": 67856,
      "byteStride": 12,
      "name": "floatBufferViews",
      "target": 34962
    }
  ],
  "buffers": [
    {
      "byteLength": 154496,
      "uri": "scene.bin"
    }
  ],
  "extensionsUsed": [
    "KHR_materials_clearcoat"
  ],
  "materials": [
    {
      "doubleSided": true,
      "name": "DiffuseMap",
      "pbrMetallicRoughness": {
        "baseColorFactor": [
          0.9041773379690979,
          0.0,
          0.5332463044606399,
          1.0
        ],
        "metallicFactor": 0.0,
        "roughnessFactor": 0.8843152764307478
      }
    },
    {
      "extensions": {
        "KHR_materials_clearcoat": {
          "clearcoatFactor": 1.0,
          "clearcoatRoughnessFactor": 0.04
        }
      },
      "name": "Material.001",
      "pbrMetallicRoughness": {
        "baseColorFactor": [
          0.9264086443276424,
          0.2573057854079805,
          1.0,
          1.0
        ],
        "metallicFactor": 0.8331714929770148,
        "roughnessFactor": 0.0
      }
    }
  ],
  "meshes": [
    {
      "name": "oprava_geom.001_DiffuseMap_0",
      "primitives": [
        {
          "attributes": {
            "NORMAL": 1,
            "POSITION": 0,
            "TEXCOORD_0": 2
          },
          "indices": 3,
          "material": 0,
          "mode": 4
        }
      ]
    },
    {
      "name": "glasses_geom_Material.001_0",
      "primitives": [
        {
          "attributes": {
            "NORMAL": 5,
            "POSITION": 4,
            "TEXCOORD_0": 6
          },
          "indices": 7,
          "material": 1,
          "mode": 4
        }
      ]
    }
  ],
  "nodes": [
    {
      "children": [
        1
      ],
      "matrix": [
        1.0,
        0.0,
        0.0,
        0.0,
        0.0,
        2.220446049250313e-16,
        -1.0,
        0.0,
        0.0,
        1.0,
        2.220446049250313e-16,
        0.0,
        0.0,
        -1.2062395171597018e-06,
        2.943612855688113e-07,
        1.0
      ],
      "name": "Sketchfab_model"
    },
    {
      "children": [
        2
      ],
      "matrix": [
        1.0,
        0.0,
        0.0,
        0.0,
        0.0,
        0.0,
        1.0,
        0.0,
        0.0,
        -1.0,
        0.0,
        0.0,
        0.0,
        0.0,
        0.0,
        1.0
      ],
      "name": "a23d5d200d2342d8819df70f2d353b54.fbx"
    },
    {
      "children": [
        3,
        5
      ],
      "name": "RootNode"
    },
    {
      "children": [
        4
      ],
      "matrix": [
        100.0,
        0.0,
        0.0,
        0.0,
        0.0,
        99.99999999999866,
        1.6292067073209114e-05,
        0.0,
        0.0,
        -1.6292067073209114e-05,
        99.99999999999866,
        0.0,
        0.0,
        0.0,
        0.0,
        1.0
      ],
      "name": "oprava_geom.001"
    },
    {
      "mesh": 0,
      "name": "oprava_geom.001_DiffuseMap_0"
    },
    {
      "children": [
        6
      ],
      "matrix": [
        100.0,
        0.0,
        0.0,
        0.0,
        0.0,
        99.99999999999866,
        1.6292067073209114e-05,
        0.0,
        0.0,
        -1.6292067073209114e-05,
        99.99999999999866,
        0.0,
        0.0,
        0.0,
        0.0,
        1.0
      ],
      "name": "glasses_geom"
    },
    {
      "mesh": 1,
      "name": "glasses_geom_Material.001_0"
    }
  ],
  "scene": 0,
  "scenes": [
    {
      "name": "Sketchfab_Scene",
      "nodes": [
        0
      ]
    }
  ]
}
